<svg width="228" height="221" viewBox="0 0 228 221" fill="none" xmlns="http://www.w3.org/2000/svg">
<path opacity="0.503384" d="M108.878 86.4034C108.723 80.4772 105.858 75.0552 104.996 69.2686C102.739 54.1039 106.937 5.19995 134.495 5.19995C163.081 5.19995 133.883 70.4692 126.732 83.0512C126.054 84.243 120.23 91.8045 120.91 93.1089C121.195 93.656 123.543 90.2217 123.627 90.1283C126.419 87.0029 129.785 83.9665 132.942 81.1883C141.556 73.6103 195.723 27.1565 208.077 57.4021C212.85 69.088 200.055 81.1586 190.773 87.5203C181.104 94.1498 168.111 95.778 157.394 100.186C153.014 101.988 148.684 103.221 144.198 104.655C142.946 105.057 140.316 104.134 140.316 105.4C140.316 105.601 145.978 103.484 151.96 102.048C161.612 99.7323 199.728 100.627 212.471 110.375C225.215 120.123 225.215 128.722 217.074 135.046C197.936 149.912 177.032 137.822 158.558 130.731C153.986 128.975 149.052 128.776 144.586 126.633C144.294 126.493 138.764 123.769 138.764 124.771C138.764 125.493 150.084 126.405 156.23 130.731C173.855 143.134 197.956 192.388 178.354 204.112C157.422 216.63 128.028 162.398 125.956 156.432C124.878 153.33 125.438 150.227 124.79 147.12C124.502 145.732 123.627 141.607 123.627 143.022C123.627 161.611 128.117 195.004 114.699 208.954C106.243 217.745 90.815 219.461 86.366 205.229C82.2066 191.925 84.2709 170.658 89.8593 157.922C91.8394 153.408 100.762 142.751 100.339 141.533C99.7817 139.928 96.1843 145.116 96.0685 145.258C91.9725 150.313 87.3163 155.405 82.0962 159.412C77.6472 162.828 72.124 164.713 67.3465 167.607C55.1182 175.019 34.6 188.117 22.7118 171.332C12.159 156.432 52.6928 126.614 72.0055 122.908C77.3667 121.879 83.9469 119.915 89.4711 120.673C91.1326 120.901 90.2955 120.858 91.0231 121.79C95.0223 126.907 67.8352 125.404 65.7944 125.143C46.937 122.73 3.60184 126.9 5.24569 101.675C7.0641 73.77 60.3337 90.8656 67.3465 93.1089C78.774 96.7639 88.3452 103.439 80.9315 98.6957C68.6642 90.8455 14.698 46.7022 44.7396 23.5747C65.761 7.39237 106.937 80.2198 106.937 89.384" stroke="#65720E" stroke-opacity="0.9" stroke-width="10.4" stroke-linecap="round" stroke-linejoin="round"/>
<path d="M99.4213 101.975C107.103 90.4093 122.42 92.1779 133.09 98.2569C150.566 108.214 132.156 141.55 105.685 138.409C81.8923 135.585 84.8987 98.2682 108.425 90.822" stroke="#65720E" stroke-opacity="0.9" stroke-width="10.4" stroke-linecap="round" stroke-linejoin="round"/>
</svg>
