<svg width="294" height="171" viewBox="0 0 294 171" fill="none" xmlns="http://www.w3.org/2000/svg">
<path d="M87.9255 33.3284H91.1981H93.9715L96.3011 32.8694L98.1316 31.7222" stroke="#FEF9F5" stroke-width="0.5"/>
<path d="M89.978 29.8292L88.5913 32.3532L86.4835 34.2462L85.4296 32.9268L84.9304 31.8943V31.1485L85.7624 30.4602L85.4296 28.7392V27.4772L85.9288 26.3873L86.4835 24.7811V23.6339L84.9304 22.3145L85.7624 21.8556L86.4835 22.6013H87.2601L87.7593 21.8556H88.5913L89.6452 23.6339L90.3662 26.6168L89.978 29.8292Z" stroke="#FEF9F5" stroke-width="0.5"/>
<path d="M86.4834 34.1315L87.5927 31.1485L88.2029 28.1656V24.8385L87.0935 22.6587" stroke="#FEF9F5" stroke-width="0.5"/>
<path d="M86.2616 34.9919V35.5656M86.2616 35.5656V36.1392L85.8178 36.8849L85.0413 37.4586L82.046 36.8849L79.8273 36.1392L79.1617 34.9919L78.4961 33.902L77.8305 33.0416L77.054 31.8369V31.0338L78.4961 31.378L77.8305 30.3455H78.8289L82.046 31.0338H83.2108L84.2647 31.378L85.3741 31.0338L86.2616 32.1237L86.8162 35.5656H86.2616Z" stroke="#FEF9F5" stroke-width="0.5"/>
<path d="M86.3169 35.2788L85.263 34.4757L82.8779 33.6152L80.6592 32.8695L78.3296 31.3206" stroke="#FEF9F5" stroke-width="0.5"/>
<path d="M87.7592 33.3283L90.1998 34.9345L91.3091 36.426L92.0302 38.7205V40.9577L91.3091 43.3096L90.1998 44.9732H88.8685L88.3693 44.1701L87.7592 44.9732H86.8162H86.0397L85.5959 42.9655V40.9577V39.0647L86.0397 36.426" stroke="#FEF9F5" stroke-width="0.5"/>
<path d="M88.4248 44.2275L88.9794 40.6709L89.2568 38.0322L88.4248 35.9671L87.0381 33.8446" stroke="#FEF9F5" stroke-width="0.5"/>
<path d="M88.8684 31.7796L90.9762 30.2307H93.2504L95.1917 30.747L96.8558 31.7796H98.0206L98.4088 31.2633L98.0206 32.6974L97.244 34.0168L96.1347 34.9346H94.9144L93.5832 35.5656L91.8637 34.9346L90.9762 35.2788L87.7036 33.271" stroke="#FEF9F5" stroke-width="0.5"/>
<path d="M87.8701 33.271L90.0888 32.4679L91.1982 31.2059L93.0286 31.4927L94.859 30.6896" stroke="#FEF9F5" stroke-width="0.5"/>
<path d="M97.4106 31.7796L97.8544 31.0338V30.3455L98.2981 31.3206" stroke="#FEF9F5" stroke-width="0.5"/>
<path d="M84.1538 31.1485L82.4343 27.1904L82.8781 26.502H83.3773L85.2632 27.4772" stroke="#FEF9F5" stroke-width="0.5"/>
<path d="M86.206 35.9671L85.4295 39.8104L84.0428 41.8182L82.3233 42.736H79.7163L78.7179 41.3593L77.9968 39.8104L79.4944 39.6384L80.7702 38.95L81.7686 38.1469L82.3233 37.4012L83.1553 37.057" stroke="#FEF9F5" stroke-width="0.5"/>
<path d="M79.8274 41.0725L82.6008 40.7283L84.3203 39.6384L85.9288 36.7702" stroke="#FEF9F5" stroke-width="0.5"/>
<path d="M93.6943 35.6803L94.9145 36.4834L95.9684 37.8601V38.7206L94.9145 39.1795L93.9716 40.2694L93.195 41.0725L92.0857 40.2694" stroke="#FEF9F5" stroke-width="0.5"/>
<path d="M94.8036 39.2368L93.2505 38.0322L90.4216 35.1066" stroke="#FEF9F5" stroke-width="0.5"/>
<path d="M92.9177 35.3361L95.913 38.7206H96.4676L96.3567 37.4586L94.9146 36.4834" stroke="#FEF9F5" stroke-width="0.5"/>
<path d="M84.2101 31.378L84.0984 31.0338" stroke="#FEF9F5" stroke-width="0.5"/>
<path d="M84.7084 31.0912L82.5452 26.9036L85.2076 30.8043L85.6513 30.5175L82.6561 26.7315L82.6653 26.7403M82.6653 26.7403L85.5404 29.485L85.374 28.4524L82.6653 26.7403ZM82.767 26.5594L85.374 27.9361" stroke="#FEF9F5" stroke-width="0.5"/>
<path d="M84.9858 27.3625L85.3747 27.5346" stroke="#FEF9F5" stroke-width="0.5"/>
<path d="M79.8274 41.0725L78.1633 39.8679" stroke="#FEF9F5" stroke-width="0.5"/>
<path d="M84.8749 22.3719L84.1538 23.0029V23.6913L84.4311 24.7238L85.1522 23.6913H86.3725" stroke="#FEF9F5" stroke-width="0.5"/>
<path d="M85.603 27.3881V27.7898L86.7402 28.0577L87.9406 27.7898L88.0669 27.3881V26.3167H86.2348L85.9821 26.6515L85.603 27.3881Z" fill="white"/>
<path d="M108.508 58.9689C106.39 58.9689 104.318 58.8141 102.29 58.5046C102.2 58.5046 102.155 58.453 102.155 58.3498C102.155 58.0919 102.358 57.6791 102.763 57.1116C103.214 56.5441 103.687 56.0024 104.183 55.4865C104.723 55.0222 105.106 54.79 105.332 54.79C105.692 54.79 106.075 54.8416 106.48 54.9448C106.931 54.9964 107.359 55.048 107.765 55.0996C108.666 55.2028 109.589 55.2801 110.535 55.3317C111.482 55.4349 112.428 55.4865 113.374 55.4865C114.951 55.4865 116.573 55.3317 118.24 55.0222C119.952 54.661 121.439 53.913 122.701 52.778C123.782 51.7461 124.863 50.4821 125.945 48.986C127.071 47.4898 127.634 45.8905 127.634 44.188C127.634 42.4339 127.071 40.9635 125.945 39.7769C124.863 38.5903 123.489 37.6617 121.822 36.991C120.155 36.2687 118.488 35.7786 116.821 35.5206C115.154 35.2111 113.734 35.0563 112.563 35.0563C111.842 35.0563 111.144 35.1079 110.468 35.2111C109.792 35.3143 109.094 35.4175 108.373 35.5206H108.238C108.057 35.5206 107.967 35.4175 107.967 35.2111C107.967 34.9531 108.102 34.592 108.373 34.1277C108.688 33.6118 109.026 33.1474 109.387 32.7347C109.792 32.322 110.085 32.1156 110.265 32.1156C111.977 32.1156 113.78 31.8835 115.672 31.4191C117.609 30.9548 119.502 30.3099 121.349 29.4845C123.196 28.659 124.818 27.7304 126.215 26.6985C127.296 25.9247 128.535 24.9186 129.932 23.6804C131.374 22.4422 132.613 21.0751 133.649 19.5789C134.686 18.0312 135.204 16.4318 135.204 14.7809C135.204 13.0784 134.64 11.6338 133.514 10.4472C132.433 9.20906 131.081 8.17723 129.459 7.35177C127.837 6.52631 126.192 5.88141 124.525 5.41709C122.903 4.90118 121.529 4.54004 120.403 4.33367C118.871 4.07572 117.339 3.89515 115.807 3.79197C114.32 3.63719 112.788 3.5598 111.211 3.5598C109.364 3.5598 107.291 3.71458 104.994 4.02412C102.696 4.28208 100.353 4.7464 97.9648 5.41709C95.6219 6.03619 93.3917 6.91324 91.274 8.04825C89.1564 9.18326 87.3316 10.6278 85.7997 12.3819C84.2678 14.0844 83.2315 16.1481 82.6908 18.5729C82.5557 19.2436 82.4881 19.9401 82.4881 20.6623C82.4881 21.9521 82.7134 23.1645 83.1639 24.2995C83.6145 25.3829 84.403 26.1568 85.5294 26.6211H85.7321C86.0926 26.6211 86.4305 26.5953 86.7459 26.5438C87.1063 26.4406 87.4442 26.389 87.7596 26.389C87.8047 26.389 87.8948 26.4148 88.03 26.4664C88.1651 26.4664 88.2327 26.518 88.2327 26.6211C88.2327 26.9823 87.9849 27.266 87.4893 27.4724C86.9937 27.6272 86.6332 27.7046 86.408 27.7046C85.642 27.7046 84.9887 27.4982 84.448 27.0855C83.9073 26.6727 83.4793 26.4664 83.1639 26.4664C83.1189 26.4664 83.0738 26.4922 83.0287 26.5438C82.9837 26.5438 82.9612 26.5438 82.9612 26.5438C82.8711 26.6469 82.8035 26.7759 82.7584 26.9307C82.7134 27.0855 82.6007 27.1628 82.4205 27.1628C82.1502 27.1628 81.9023 26.9049 81.6771 26.389C81.4518 25.8215 81.2716 25.2024 81.1364 24.5317C81.0012 23.861 80.9336 23.3967 80.9336 23.1387C80.9336 22.0553 81.0463 20.9203 81.2716 19.7337C81.8573 16.793 82.9612 14.2392 84.5832 12.0724C86.2503 9.85395 88.2553 7.97086 90.5982 6.42312C92.9411 4.87538 95.4417 3.63719 98.1 2.70855C100.758 1.7799 103.417 1.10922 106.075 0.696484C108.778 0.232161 111.279 0 113.577 0C116.866 0 120.087 0.386935 123.241 1.1608C124.593 1.47035 126.102 1.96047 127.769 2.63116C129.437 3.30185 131.036 4.1531 132.568 5.18493C134.1 6.21676 135.361 7.48075 136.353 8.97689C137.389 10.4215 137.907 12.0982 137.907 14.0071C137.907 16.0191 137.344 17.9022 136.217 19.6563C135.091 21.3588 133.739 22.8808 132.162 24.2221C130.631 25.5635 129.189 26.6985 127.837 27.6272C127.386 27.9367 126.733 28.3752 125.877 28.9427C125.066 29.4587 124.165 30.0262 123.174 30.6453C122.182 31.2128 121.259 31.7029 120.403 32.1156C119.592 32.4768 118.961 32.6573 118.51 32.6573C119.817 32.7089 121.191 32.9153 122.633 33.2764C124.12 33.6376 125.494 34.2051 126.756 34.9789C128.062 35.7528 129.121 36.7846 129.932 38.0744C130.743 39.3126 131.149 40.8604 131.149 42.7176C131.149 44.4202 130.743 45.9937 129.932 47.4382C129.166 48.8312 128.197 50.0436 127.026 51.0754C124.097 53.6034 121.214 55.5381 118.375 56.8795C115.537 58.2724 112.248 58.9689 108.508 58.9689ZM81.1364 65.6242C80.6408 65.6242 80.055 65.5984 79.3792 65.5468C78.7034 65.4952 78.1627 65.3404 77.7572 65.0825C77.577 64.9277 77.239 64.6698 76.7434 64.3086C76.2478 63.9991 76 63.6895 76 63.38C76 63.0188 76.1352 62.8383 76.4055 62.8383C76.6308 62.8899 76.7434 62.7093 76.7434 62.2966C76.7434 61.8838 76.6758 61.4711 76.5407 61.0584C76.4055 60.6456 76.3379 60.2329 76.3379 59.8202C76.3379 59.3559 76.4506 58.711 76.6758 57.8855C76.9011 57.1116 77.2616 56.7247 77.7572 56.7247C77.8924 56.7247 77.9599 56.8021 77.9599 56.9569C77.9599 57.4728 77.8473 57.9629 77.622 58.4272C77.3517 58.8915 77.2165 59.3559 77.2165 59.8202C77.2165 60.5425 77.4869 61.2389 78.0275 61.9096C78.5231 62.5803 79.1539 63.122 79.9199 63.5348C80.6408 63.9991 81.2941 64.2312 81.8798 64.2312C82.1051 64.2312 82.3529 64.2312 82.6232 64.2312C82.8936 64.2312 83.1414 64.2054 83.3667 64.1538C85.6645 63.7927 87.8272 62.5029 89.8547 60.2845C91.8823 58.1177 93.7521 55.3575 95.4642 52.0041C97.2214 48.5991 98.8209 44.9361 100.263 41.0151C101.75 37.0426 103.079 33.0959 104.25 29.1749C105.467 25.254 106.526 21.6168 107.427 18.2633C108.328 14.9099 109.071 12.2014 109.657 10.1377C109.882 9.31224 110.13 8.66735 110.4 8.20303C110.671 7.68711 111.099 7.1712 111.684 6.65529C112.495 5.93301 113.442 5.41709 114.523 5.10754C115.604 4.7464 116.641 4.56584 117.632 4.56584C117.722 4.56584 117.857 4.59163 118.037 4.64322C118.263 4.69481 118.375 4.798 118.375 4.95277C118.375 5.15914 118.218 5.31391 117.902 5.41709C117.587 5.46868 117.384 5.49448 117.294 5.49448C116.663 5.49448 115.987 6.08778 115.266 7.27438C114.545 8.46098 113.825 9.95713 113.104 11.7628C112.383 13.5685 111.707 15.4516 111.076 17.4121C110.445 19.321 109.905 21.0493 109.454 22.597C109.004 24.1448 108.688 25.2024 108.508 25.7699C107.922 27.6788 107.337 29.5876 106.751 31.4965C106.165 33.3538 105.557 35.2111 104.926 37.0684C104.25 39.2352 103.529 41.4021 102.763 43.5689C101.997 45.6841 101.119 47.7478 100.128 49.7599C98.7308 52.649 97.2439 55.2801 95.667 57.6533C94.1351 60.0781 92.2878 61.987 90.1251 63.38C88.0074 64.8245 85.3266 65.5726 82.0826 65.6242H81.1364Z" fill="#FEF9F5"/>
<path d="M134.627 55.2543C133.275 55.2543 132.599 54.4031 132.599 52.7006C132.599 51.514 132.869 49.863 133.41 47.7478C133.951 45.6326 134.582 43.3883 135.302 41.0151C136.068 38.5903 136.812 36.3203 137.533 34.2051C138.299 32.0382 138.884 30.3357 139.29 29.0975C139.876 27.2918 140.597 25.2024 141.453 22.8292C142.309 20.456 143.3 18.057 144.426 15.6322C145.553 13.1558 146.814 10.8858 148.211 8.82212C149.653 6.75847 151.23 5.08175 152.942 3.79197C154.699 2.50218 156.614 1.85729 158.687 1.85729C160.939 1.85729 162.426 2.32161 163.147 3.25025C163.913 4.1789 164.296 5.13334 164.296 6.11357C164.296 6.52631 164.161 6.78426 163.891 6.88744C163.665 6.99063 163.553 6.86165 163.553 6.50051C163.553 5.41709 163.17 4.54004 162.404 3.86935C161.683 3.14707 160.782 2.78593 159.7 2.78593C157.853 2.78593 156.096 3.5856 154.429 5.18493C152.762 6.78426 151.207 8.84792 149.765 11.3759C148.324 13.9039 147.017 16.5866 145.846 19.4241C144.674 22.2101 143.638 24.867 142.737 27.395C141.881 29.8714 141.205 31.8577 140.709 33.3538C140.394 34.334 139.966 35.6238 139.425 37.2232C138.884 38.7709 138.344 40.4218 137.803 42.1759C137.307 43.8784 136.879 45.5294 136.519 47.1287C136.159 48.6764 135.978 49.9404 135.978 50.9207C135.978 51.2302 136.023 51.5914 136.113 52.0041C136.204 52.4168 136.429 52.6232 136.789 52.6232C137.015 52.6232 137.195 52.5716 137.33 52.4684C137.51 52.3652 137.69 52.262 137.871 52.1589C138.907 51.4882 139.898 50.5853 140.844 49.4503C141.836 48.2637 142.737 46.9997 143.548 45.6583C144.359 44.2654 145.035 43.0014 145.575 41.8664C145.62 41.918 145.643 42.0212 145.643 42.1759C145.643 42.5887 145.372 43.2336 144.832 44.1106C144.336 44.9877 143.818 45.8389 143.277 46.6644C142.782 47.4382 142.511 47.9284 142.466 48.1347C142.421 48.4959 142.354 48.8054 142.264 49.0634C142.173 49.2697 142.061 49.5535 141.926 49.9146C141.385 50.5337 140.687 51.256 139.831 52.0815C139.02 52.9069 138.163 53.655 137.262 54.3257C136.361 54.9448 135.483 55.2543 134.627 55.2543Z" fill="#FEF9F5"/>
<path d="M145.412 55.7187C144.555 55.7187 143.947 55.4607 143.587 54.9448C143.271 54.3773 143.114 53.3971 143.114 52.0041C143.114 49.992 143.339 47.8768 143.79 45.6583C144.24 43.4399 144.848 41.2989 145.614 39.2352C146.38 37.12 147.236 35.2885 148.182 33.7407C148.903 32.6057 149.872 31.5481 151.089 30.5679C152.305 29.5876 153.612 28.788 155.008 28.1689C156.405 27.5498 157.712 27.2402 158.928 27.2402C159.334 27.2402 159.829 27.3176 160.415 27.4724C161.001 27.5756 161.452 27.7819 161.767 28.0915C161.992 28.2979 162.127 28.5816 162.172 28.9427C162.263 29.3039 162.308 29.6392 162.308 29.9488C162.308 31.2902 162.105 32.8637 161.699 34.6694C161.339 36.4235 160.843 38.2292 160.212 40.0865C159.582 41.9438 158.906 43.6979 158.185 45.3488C157.464 46.9481 156.743 48.2895 156.022 49.3729C155.617 49.992 154.963 50.6885 154.062 51.4624C153.161 52.1847 152.17 52.8811 151.089 53.5518C150.052 54.1709 149.016 54.6868 147.98 55.0996C146.943 55.5123 146.087 55.7187 145.412 55.7187ZM147.236 53.5518C149.354 53.0359 151.066 51.8751 152.373 50.0694C153.409 48.6764 154.378 46.8449 155.279 44.5749C156.18 42.3049 156.901 39.9575 157.442 37.5327C158.027 35.1079 158.32 32.9927 158.32 31.187C158.32 31.0322 158.298 30.7742 158.253 30.4131C158.253 30.052 158.185 29.8456 158.05 29.794C157.509 29.4845 156.901 29.3297 156.225 29.3297C155.774 29.3297 155.189 29.5103 154.468 29.8714C153.747 30.1809 153.206 30.5421 152.846 30.9548C152.621 31.2128 152.395 31.5739 152.17 32.0382C151.99 32.451 151.81 32.8121 151.629 33.1217C150.773 34.6694 149.94 36.4751 149.129 38.5387C148.363 40.6024 147.732 42.7176 147.236 44.8845C146.741 47.0513 146.493 49.0892 146.493 50.9981C146.493 51.6171 146.538 52.1847 146.628 52.7006C146.763 53.1649 146.966 53.4486 147.236 53.5518Z" fill="#FEF9F5"/>
<path d="M164.486 55.7187C163.63 55.7187 163.021 55.4607 162.661 54.9448C162.345 54.3773 162.188 53.3971 162.188 52.0041C162.188 49.992 162.413 47.8768 162.864 45.6583C163.314 43.4399 163.922 41.2989 164.688 39.2352C165.454 37.12 166.31 35.2885 167.257 33.7407C167.977 32.6057 168.946 31.5481 170.163 30.5679C171.379 29.5876 172.686 28.788 174.083 28.1689C175.479 27.5498 176.786 27.2402 178.002 27.2402C178.408 27.2402 178.904 27.3176 179.489 27.4724C180.075 27.5756 180.526 27.7819 180.841 28.0915C181.066 28.2979 181.201 28.5816 181.246 28.9427C181.337 29.3039 181.382 29.6392 181.382 29.9488C181.382 31.2902 181.179 32.8637 180.773 34.6694C180.413 36.4235 179.917 38.2292 179.287 40.0865C178.656 41.9438 177.98 43.6979 177.259 45.3488C176.538 46.9481 175.817 48.2895 175.096 49.3729C174.691 49.992 174.037 50.6885 173.136 51.4624C172.235 52.1847 171.244 52.8811 170.163 53.5518C169.126 54.1709 168.09 54.6868 167.054 55.0996C166.017 55.5123 165.161 55.7187 164.486 55.7187ZM166.31 53.5518C168.428 53.0359 170.14 51.8751 171.447 50.0694C172.483 48.6764 173.452 46.8449 174.353 44.5749C175.254 42.3049 175.975 39.9575 176.516 37.5327C177.101 35.1079 177.394 32.9927 177.394 31.187C177.394 31.0322 177.372 30.7742 177.327 30.4131C177.327 30.052 177.259 29.8456 177.124 29.794C176.583 29.4845 175.975 29.3297 175.299 29.3297C174.848 29.3297 174.263 29.5103 173.542 29.8714C172.821 30.1809 172.28 30.5421 171.92 30.9548C171.695 31.2128 171.469 31.5739 171.244 32.0382C171.064 32.451 170.884 32.8121 170.703 33.1217C169.847 34.6694 169.014 36.4751 168.203 38.5387C167.437 40.6024 166.806 42.7176 166.31 44.8845C165.815 47.0513 165.567 49.0892 165.567 50.9981C165.567 51.6171 165.612 52.1847 165.702 52.7006C165.837 53.1649 166.04 53.4486 166.31 53.5518Z" fill="#FEF9F5"/>
<path d="M178.761 56.3378C178.716 56.3378 178.694 56.312 178.694 56.2604C178.694 56.054 178.784 55.8476 178.964 55.6413C179.099 55.4349 179.189 55.2801 179.234 55.177C179.55 54.6094 179.933 53.655 180.383 52.3136C180.789 50.9207 181.194 49.3729 181.6 47.6704C182.05 45.9163 182.456 44.1622 182.816 42.4081C183.222 40.6024 183.582 38.9515 183.898 37.4553C184.213 35.9592 184.438 34.8242 184.573 34.0503C184.663 33.6376 184.754 33.0959 184.844 32.4252C184.934 31.7545 185.069 31.0838 185.249 30.4131C185.429 29.7424 185.632 29.3039 185.857 29.0975C186.263 28.6848 186.871 28.3237 187.682 28.0141C188.493 27.7046 189.327 27.4724 190.183 27.3176C191.039 27.1113 191.715 27.0081 192.21 27.0081C192.481 27.0081 192.683 27.1628 192.819 27.4724L192.886 27.7046C192.841 27.8593 192.774 27.9367 192.683 27.9367C192.593 27.8851 192.503 27.8593 192.413 27.8593C191.422 27.8593 190.543 28.5042 189.777 29.794C189.056 31.0322 188.403 32.5799 187.817 34.4372C187.277 36.2429 186.826 37.997 186.466 39.6995C186.15 41.4021 185.903 42.6918 185.722 43.5689C187.164 40.783 188.809 38.0744 190.656 35.4433C192.548 32.8121 194.734 30.6969 197.212 29.0975C197.572 28.8912 197.933 28.6848 198.293 28.4784C198.698 28.2205 199.081 28.0915 199.442 28.0915C200.028 28.0915 200.388 28.401 200.523 29.0201C200.658 29.5876 200.726 30.1294 200.726 30.6453C200.726 31.316 200.546 32.2704 200.185 33.5086C199.87 34.6952 199.487 35.8818 199.036 37.0684C198.631 38.255 198.293 39.1836 198.023 39.8543C199.419 37.7391 200.974 35.7528 202.686 33.8955C204.398 31.9866 206.29 30.3873 208.363 29.0975C208.678 28.8912 209.039 28.6848 209.444 28.4784C209.85 28.2205 210.233 28.0915 210.593 28.0915C211.179 28.0915 211.517 28.401 211.607 29.0201C211.742 29.5876 211.81 30.1294 211.81 30.6453C211.81 31.4191 211.607 32.3994 211.202 33.586C210.841 34.721 210.413 35.8818 209.917 37.0684C209.467 38.2034 209.106 39.1578 208.836 39.9317C208.521 40.7572 208.205 41.6084 207.89 42.4855C207.62 43.3625 207.372 44.2396 207.146 45.1166C206.966 45.9421 206.764 46.8707 206.538 47.9026C206.313 48.8828 206.2 49.8115 206.2 50.6885C206.2 51.0496 206.245 51.4624 206.335 51.9267C206.471 52.391 206.741 52.6232 207.146 52.6232C207.372 52.6232 207.552 52.5716 207.687 52.4684C207.867 52.3652 208.048 52.262 208.228 52.1589C209.264 51.4882 210.255 50.5853 211.202 49.4503C212.193 48.2637 213.094 46.9997 213.905 45.6583C214.716 44.2654 215.392 43.0014 215.932 41.8664C215.977 41.918 216 42.0212 216 42.1759C216 42.4855 215.842 42.9498 215.527 43.5689C215.212 44.1364 214.851 44.7555 214.446 45.4262C214.04 46.0969 213.657 46.6902 213.297 47.2061C212.981 47.722 212.824 48.0316 212.824 48.1347C212.778 48.4959 212.711 48.8054 212.621 49.0634C212.531 49.2697 212.396 49.5535 212.215 49.9146C211.675 50.5337 210.886 51.3076 209.85 52.2362C208.859 53.1133 207.822 53.913 206.741 54.6352C205.66 55.3059 204.713 55.6413 203.902 55.6413C203.227 55.6413 202.776 55.3833 202.551 54.8674C202.325 54.2999 202.213 53.6808 202.213 53.0101C202.213 51.6687 202.483 50.0178 203.024 48.0573C203.565 46.0453 204.173 44.0332 204.849 42.0212C205.524 40.0091 206.065 38.3582 206.471 37.0684C206.606 36.6557 206.809 35.985 207.079 35.0563C207.394 34.1277 207.552 33.4828 207.552 33.1217C207.552 32.8121 207.507 32.5026 207.417 32.193C207.327 31.8835 207.101 31.7287 206.741 31.7287C206.02 31.7287 205.141 32.2704 204.105 33.3538C203.114 34.4372 202.1 35.7528 201.064 37.3005C200.028 38.7967 199.104 40.2671 198.293 41.7116C197.527 43.1046 196.986 44.1364 196.671 44.8071C196.22 45.8389 195.792 46.9223 195.387 48.0573C194.981 49.1408 194.688 50.25 194.508 51.385C194.103 51.385 193.562 51.6945 192.886 52.3136C192.255 52.9327 191.647 53.5518 191.061 54.1709C190.521 54.7384 190.183 55.0222 190.048 55.0222C189.958 55.0222 189.935 54.9706 189.98 54.8674C190.025 54.7126 190.048 54.5837 190.048 54.4805L190.115 53.9388C190.205 53.1649 190.341 52.4168 190.521 51.6945C190.746 50.9207 190.949 50.1984 191.129 49.5277C191.354 48.6506 191.602 47.7736 191.872 46.8965C192.188 45.9679 192.503 45.0908 192.819 44.2654C192.954 43.8527 193.202 43.1304 193.562 42.0985C193.968 41.0151 194.396 39.8285 194.846 38.5387C195.297 37.249 195.68 36.1139 195.995 35.1337C196.31 34.1019 196.468 33.4312 196.468 33.1217C196.468 32.8637 196.423 32.5799 196.333 32.2704C196.288 31.9608 196.085 31.8061 195.725 31.8061C195.274 31.8061 194.688 32.1414 193.968 32.8121C193.292 33.4828 192.774 34.0245 192.413 34.4372C190.476 36.862 188.786 39.6222 187.344 42.7176C185.948 45.7615 184.799 48.857 183.898 52.0041C183.762 52.4168 183.672 52.7006 183.627 52.8553C183.627 53.0101 183.447 53.2423 183.087 53.5518C182.951 53.6034 182.523 53.8614 181.802 54.3257C181.127 54.79 180.473 55.2285 179.842 55.6413C179.167 56.1056 178.806 56.3378 178.761 56.3378Z" fill="#FEF9F5"/>
<path d="M100.412 49.0548L105.443 44.4116L110.925 42.7778L113.103 40.9721H115.881L118.059 41.832L119.936 43.2937L121.813 45.0135L118.059 44.4116H114.229L110.624 43.6377H109.273L105.443 45.0135L102.064 48.1949L98.9099 51.8063L100.412 49.0548Z" fill="#FEF9F5"/>
<path d="M98.3092 46.7332L100.111 35.1251L99.2103 29.622L94.7798 26.3546L92.9024 22.0553V15.6064V10.1893C92.9024 10.5332 94.8048 13.944 95.756 15.6064L97.1077 19.0458L97.7835 20.8515V24.033L98.3092 25.5807L99.2103 28.1603L100.111 33.1474L100.487 35.727L99.5857 43.7237L98.3092 46.7332Z" fill="#FEF9F5"/>
<g clip-path="url(#clip0_448_23)">
<path d="M201.29 149.452V139.968C201.29 133.866 195.466 128.903 188.306 128.903H186.451V122.58C186.451 116.479 180.627 111.516 173.467 111.516H167.902V106.774H169.757V103.613H167.902V98.871C167.902 91.5622 161.397 85.5289 153.064 84.7385V78.3226H149.355V84.7385C141.021 85.5289 134.516 91.5622 134.516 98.871V103.613H132.661V106.774H134.516V111.516H114.113V92.5485H115.968V89.3872H112.258V83.0646C112.258 79.2489 109.066 76.0562 104.839 75.3211V72H101.129V75.3208C96.9018 76.0559 93.7097 79.2485 93.7097 83.0643V89.3869H91.855V90.9677V92.5485V149.452H90V170H151.21H166.048H205V149.452H201.29ZM110.403 92.5485V98.871H104.839V92.5485H110.403ZM96.4139 116.258C97.2709 114.812 98.7845 113.097 101.129 113.097H104.839C107.183 113.097 108.697 114.812 109.554 116.258H96.4139ZM101.129 119.419V138.387H95.5647V119.419H101.129ZM104.839 109.935V102.032H110.403V111.924C109.033 110.794 107.22 109.935 104.839 109.935ZM102.984 78.3226C105.399 78.3226 107.439 79.6488 108.207 81.4838H97.7608C98.5285 79.6488 100.569 78.3226 102.984 78.3226ZM97.4193 84.6451H108.548V89.3872H104.839V86.2259H101.129V89.3872H97.4193V84.6451ZM95.5647 92.5485H101.129V98.871H95.5647V92.5485ZM95.5643 102.032H101.129V109.935C98.7473 109.935 96.9354 110.794 95.5643 111.924V102.032ZM104.839 166.839H101.129V155.774H97.4193V166.839H93.7097V152.613H104.839V166.839ZM104.839 149.452H95.5647V141.548H98.8367H104.839V149.452ZM104.839 138.387V119.419H110.403V136.62L106.256 138.387H104.839ZM134.516 166.839H108.548V152.613H134.516V166.839ZM134.516 149.452H108.548V141.548H134.516V149.452ZM134.516 138.387H114.551L121.97 135.226H134.516V138.387ZM134.516 132.064H121.094L114.113 135.039V128.903H134.516V132.064ZM134.516 114.677V125.742H128.952V122.58H125.242V125.742H121.532V122.58H117.823V125.742H114.113V114.677L134.516 114.677ZM186.452 132.064H188.306C193.42 132.064 197.581 135.61 197.581 139.968H190.929L181.655 132.064H182.742H186.452ZM188.306 142.203V149.452H180.887V135.88L188.306 142.203ZM173.467 114.677C177.26 114.677 180.519 116.633 181.955 119.419H172.979C172.445 117.663 171.49 116.053 170.193 114.677H173.467ZM169.758 122.58V128.903H147.5V122.58H169.758ZM148.151 119.419C148.93 117.552 150.369 115.953 152.237 114.831C151.736 116.078 151.393 117.598 151.267 119.419H148.151ZM154.993 119.419C155.342 115.308 157.026 113.097 158.629 113.097C160.232 113.097 161.914 115.308 162.264 119.419H154.993ZM169.109 119.419H165.993C165.866 117.598 165.521 116.078 165.022 114.831C166.89 115.953 168.33 117.552 169.109 119.419ZM164.045 97.2902H160.43C160.237 94.3535 159.508 91.7375 158.384 89.6573C161.393 91.3646 163.507 94.1114 164.045 97.2902ZM153.064 88.554C154.828 89.9449 156.379 93.1838 156.706 97.2902H153.064V88.554ZM149.355 88.554V97.2902H145.713C146.04 93.1838 147.591 89.9466 149.355 88.554ZM144.035 89.6573C142.911 91.7375 142.184 94.3535 141.989 97.2902H138.374C138.912 94.1114 141.026 91.3646 144.035 89.6573ZM138.226 100.452H164.193V103.613H138.226V100.452ZM138.225 106.774H164.193V110.866C162.474 110.271 160.597 109.935 158.629 109.935C155.924 109.935 153.394 110.565 151.209 111.646V111.516H138.225V106.774ZM147.064 114.677C145.02 116.844 143.79 119.592 143.79 122.58V128.903H138.226V114.677H147.064ZM151.21 166.838H138.226V152.612H141.935H151.21V166.838ZM151.209 141.548V149.452H141.935H138.226V139.968H151.473C151.317 140.477 151.209 141 151.209 141.548ZM162.339 166.838H154.919V152.612H162.339V166.838ZM162.339 149.452H154.919V141.548C154.919 139.805 156.583 138.387 158.629 138.387C160.675 138.387 162.339 139.805 162.339 141.548V149.452ZM177.177 166.839H166.048V152.613H177.177V166.839ZM177.177 149.452H166.048V141.548C166.048 141 165.941 140.477 165.785 139.968H177.177V149.452ZM177.177 136.806H163.485C162.181 135.834 160.495 135.226 158.629 135.226C156.763 135.226 155.079 135.834 153.773 136.806H138.226V132.064H177.177V136.806ZM173.467 128.903V122.58H182.742V128.903H180.887H179.032H173.467ZM192.016 166.839H180.887V152.613H192.016V166.839ZM192.016 143.129H197.581V149.452H192.016V143.129ZM201.29 166.838H195.725V152.612H201.29V166.838Z" fill="#FEF9F5"/>
<path d="M147.5 143.129H143.79V146.29H147.5V143.129Z" fill="#FEF9F5"/>
<path d="M173.468 143.129H169.758V146.29H173.468V143.129Z" fill="#FEF9F5"/>
<path d="M115.968 155.774H112.258V163.677H115.968V155.774Z" fill="#FEF9F5"/>
<path d="M123.387 155.774H119.677V163.677H123.387V155.774Z" fill="#FEF9F5"/>
<path d="M130.806 155.774H127.097V163.677H130.806V155.774Z" fill="#FEF9F5"/>
<path d="M147.5 155.774H143.79V163.677H147.5V155.774Z" fill="#FEF9F5"/>
<path d="M173.468 155.774H169.758V163.677H173.468V155.774Z" fill="#FEF9F5"/>
<path d="M188.306 155.774H184.597V163.677H188.306V155.774Z" fill="#FEF9F5"/>
<path d="M121.532 116.258H117.823V119.419H121.532V116.258Z" fill="#FEF9F5"/>
<path d="M128.952 116.258H125.242V119.419H128.952V116.258Z" fill="#FEF9F5"/>
<path d="M143.79 116.258H140.081V119.419H143.79V116.258Z" fill="#FEF9F5"/>
</g>
<path d="M33.8305 140.82C29.4305 142.99 37.576 156.405 40.513 160.955C37.5389 158.349 34.7364 155.586 32.12 152.68C31.4215 148.18 27.973 127.55 23.386 130.305C19.437 132.68 26.763 145.09 30.3875 150.74C25.729 145.351 21.426 139.717 17.501 133.865C17.4515 133.75 12.1 120.5 8.67899 123.15C5.25799 125.8 16.5935 134.75 16.5935 134.75V134.72C17.952 137 19.9705 140.315 22.55 144.06C18.4745 139.85 10.7525 132.845 6.74849 135.385C1.38049 138.79 19.2115 146.2 24.5905 146.92C26.6585 149.76 28.9905 152.75 31.592 155.67C26.807 152.585 15.9445 146.17 13.8985 150.08C11.3245 155 22.253 157.675 33 157.225C37.532 162.14 42.7075 166.725 48.301 169.925L49.5385 167.325C49.5385 167.325 46.574 166.055 41.4315 161.735C40.986 157.73 38.599 138.47 33.8305 140.82Z" fill="#585123"/>
<path d="M260.17 140.82C264.57 142.99 256.424 156.405 253.487 160.955C256.461 158.349 259.264 155.586 261.88 152.68C262.579 148.18 266.027 127.55 270.614 130.305C274.563 132.68 267.237 145.09 263.613 150.74C268.271 145.351 272.574 139.717 276.499 133.865C276.549 133.75 281.9 120.5 285.321 123.15C288.742 125.8 277.407 134.75 277.407 134.75V134.72C276.048 137 274.03 140.315 271.45 144.06C275.526 139.85 283.248 132.845 287.252 135.385C292.62 138.79 274.789 146.2 269.41 146.92C267.342 149.76 265.01 152.75 262.408 155.67C267.193 152.585 278.056 146.17 280.102 150.08C282.676 155 271.747 157.675 261 157.225C256.468 162.14 251.293 166.725 245.699 169.925L244.462 167.325C244.462 167.325 247.426 166.055 252.569 161.735C253.014 157.73 255.401 138.47 260.17 140.82Z" fill="#585123"/>
<defs>
<clipPath id="clip0_448_23">
<rect width="115" height="98" fill="white" transform="translate(90 72)"/>
</clipPath>
</defs>
</svg>
