<svg width="198" height="93" viewBox="0 0 198 93" fill="none" xmlns="http://www.w3.org/2000/svg">
<path d="M16.866 47.1359H21.4943H25.4167L28.7115 46.4868L31.3002 44.8643" stroke="#111111" stroke-width="0.5"/>
<path d="M19.7686 42.1868L17.8074 45.7565L14.8264 48.4337L13.3359 46.5678L12.6299 45.1075V44.0528L13.8066 43.0792L13.3359 40.6454V38.8605L14.0419 37.3191L14.8264 35.0475V33.4249L12.6299 31.5589L13.8066 30.9099L14.8264 31.9646H15.9247L16.6307 30.9099H17.8074L19.2979 33.4249L20.3177 37.6436L19.7686 42.1868Z" stroke="#111111" stroke-width="0.5"/>
<path d="M14.8264 48.2714L16.3954 44.0527L17.2583 39.834V35.1285L15.6893 32.0457" stroke="#111111" stroke-width="0.5"/>
<path d="M14.5132 49.4887V50.3M14.5132 50.3V51.1113L13.8856 52.1659L12.7873 52.9772L8.55119 52.1659L5.41331 51.1113L4.47195 49.4887L3.53059 47.9472L2.58922 46.7303L1.49097 45.0266V43.8908L3.53059 44.3776L2.58922 42.9172H4.00127L8.55119 43.8908H10.1986L11.6891 44.3776L13.258 43.8908L14.5132 45.4322L15.2976 50.3H14.5132Z" stroke="#111111" stroke-width="0.5"/>
<path d="M14.5913 49.8943L13.1008 48.7585L9.72757 47.5415L6.58969 46.4869L3.29492 44.2964" stroke="#111111" stroke-width="0.5"/>
<path d="M16.6307 47.136L20.0824 49.4076L21.6513 51.5169L22.6711 54.7621V57.9261L21.6513 61.2524L20.0824 63.6051H18.1997L17.4936 62.4693L16.6307 63.6051H15.2971H14.1989L13.5713 60.7656V57.9261V55.2489L14.1989 51.5169" stroke="#111111" stroke-width="0.5"/>
<path d="M17.5723 62.55L18.3567 57.5201L18.749 53.7881L17.5723 50.8675L15.6111 47.8657" stroke="#111111" stroke-width="0.5"/>
<path d="M18.1996 44.9456L21.1806 42.7551H24.3969L27.1426 43.4853L29.496 44.9456H31.1434L31.6925 44.2154L31.1434 46.2437L30.0451 48.1096L28.4762 49.4077H26.7503L24.8676 50.3001L22.4358 49.4077L21.1806 49.8945L16.5522 47.055" stroke="#111111" stroke-width="0.5"/>
<path d="M16.7878 47.0546L19.9257 45.9188L21.4947 44.134L24.0834 44.5396L26.6722 43.4038" stroke="#111111" stroke-width="0.5"/>
<path d="M30.2805 44.9455L30.9081 43.8908V42.9172L31.5357 44.2964" stroke="#111111" stroke-width="0.5"/>
<path d="M11.532 44.0531L9.1001 38.4552L9.72767 37.4817H10.4337L13.1009 38.8609" stroke="#111111" stroke-width="0.5"/>
<path d="M14.4344 50.8677L13.3361 56.3033L11.3749 59.1428L8.94308 60.4409H5.25607L3.84403 58.4938L2.82422 56.3033L4.94229 56.0599L6.74656 55.0864L8.15861 53.9506L8.94308 52.8959L10.1198 52.4091" stroke="#111111" stroke-width="0.5"/>
<path d="M5.41309 58.0883L9.33543 57.6015L11.7673 56.0601L14.0422 52.0037" stroke="#111111" stroke-width="0.5"/>
<path d="M25.0245 50.4619L26.7503 51.5977L28.2408 53.5448V54.7617L26.7503 55.4108L25.4167 56.9522L24.3185 58.088L22.7495 56.9522" stroke="#111111" stroke-width="0.5"/>
<path d="M26.5938 55.4922L24.3973 53.7884L20.3965 49.6509" stroke="#111111" stroke-width="0.5"/>
<path d="M23.9265 49.9751L28.1626 54.7617H28.9471L28.7902 52.9769L26.7506 51.5977" stroke="#111111" stroke-width="0.5"/>
<path d="M11.6111 44.3767L11.4534 43.8906" stroke="#111111" stroke-width="0.5"/>
<path d="M12.316 43.9719L9.25659 38.0495L13.022 43.5663L13.6496 43.1606L9.41349 37.8061L9.42652 37.8186M9.42652 37.8186L13.4927 41.7003L13.2574 40.24L9.42652 37.8186ZM9.57038 37.5627L13.2574 39.5098" stroke="#111111" stroke-width="0.5"/>
<path d="M12.7085 38.6982L13.2577 38.9413" stroke="#111111" stroke-width="0.5"/>
<path d="M5.41273 58.0885L3.05933 56.3848" stroke="#111111" stroke-width="0.5"/>
<path d="M12.5515 31.6401L11.5317 32.5326V33.5061L11.924 34.9664L12.9438 33.5061H14.6696" stroke="#111111" stroke-width="0.5"/>
<path d="M13.5815 38.7345V39.3028L15.1898 39.6816L16.8875 39.3028L17.0662 38.7345V37.2192H14.475L14.1176 37.6928L13.5815 38.7345Z" fill="white"/>
<path d="M45.9756 83.3989C42.9806 83.3989 40.0494 83.18 37.1819 82.7422C37.0545 82.7422 36.9907 82.6692 36.9907 82.5233C36.9907 82.1585 37.2775 81.5748 37.851 80.7721C38.4882 79.9695 39.1573 79.2034 39.8582 78.4738C40.6229 77.8171 41.1645 77.4887 41.4831 77.4887C41.9929 77.4887 42.5346 77.5617 43.1081 77.7076C43.7453 77.7806 44.3506 77.8536 44.9241 77.9265C46.1986 78.0725 47.5049 78.1819 48.8431 78.2549C50.1812 78.4008 51.5194 78.4738 52.8576 78.4738C55.0878 78.4738 57.3818 78.2549 59.7395 77.8171C62.161 77.3063 64.2638 76.2483 66.048 74.6431C67.5774 73.1838 69.1067 71.3962 70.636 69.2802C72.2291 67.1642 73.0256 64.9023 73.0256 62.4944C73.0256 60.0136 72.2291 57.9341 70.636 56.2559C69.1067 54.5778 67.1632 53.2644 64.8055 52.3158C62.4477 51.2943 60.09 50.6012 57.7323 50.2363C55.3746 49.7985 53.3673 49.5797 51.7106 49.5797C50.691 49.5797 49.7033 49.6526 48.7475 49.7985C47.7916 49.9445 46.8039 50.0904 45.7844 50.2363H45.5932C45.3383 50.2363 45.2109 50.0904 45.2109 49.7985C45.2109 49.4337 45.4021 48.923 45.7844 48.2663C46.2304 47.5366 46.7084 46.88 47.2181 46.2962C47.7916 45.7125 48.2058 45.4207 48.4607 45.4207C50.8822 45.4207 53.431 45.0923 56.1074 44.4356C58.8474 43.7789 61.5238 42.8669 64.1364 41.6994C66.749 40.532 69.043 39.2186 71.0184 37.7593C72.5477 36.6649 74.3001 35.2421 76.2755 33.4909C78.3146 31.7397 80.0669 29.8062 81.5325 27.6902C82.9981 25.5012 83.7309 23.2393 83.7309 20.9044C83.7309 18.4966 82.9344 16.4536 81.3414 14.7754C79.812 13.0242 77.9004 11.5649 75.6064 10.3975C73.3124 9.23006 70.9865 8.318 68.6288 7.66131C66.3348 6.93167 64.3913 6.42091 62.7982 6.12905C60.6317 5.76423 58.4651 5.50885 56.2985 5.36292C54.1957 5.14403 52.0292 5.03458 49.7989 5.03458C47.1863 5.03458 44.2551 5.25347 41.0052 5.69126C37.7554 6.05609 34.4418 6.71277 31.0646 7.66131C27.751 8.53689 24.5968 9.7773 21.6018 11.3825C18.6069 12.9878 16.0261 15.0308 13.8596 17.5116C11.693 19.9194 10.2274 22.838 9.46274 26.2674C9.27158 27.2159 9.17599 28.2009 9.17599 29.2224C9.17599 31.0466 9.49461 32.7612 10.1318 34.3665C10.769 35.8987 11.8842 36.9932 13.4772 37.6499H13.764C14.2738 37.6499 14.7517 37.6134 15.1977 37.5404C15.7075 37.3945 16.1854 37.3216 16.6315 37.3216C16.6952 37.3216 16.8227 37.358 17.0138 37.431C17.205 37.431 17.3006 37.504 17.3006 37.6499C17.3006 38.1606 16.9501 38.562 16.2492 38.8538C15.5482 39.0727 15.0384 39.1822 14.7198 39.1822C13.6365 39.1822 12.7126 38.8903 11.9479 38.3066C11.1832 37.7229 10.5779 37.431 10.1318 37.431C10.0681 37.431 10.0044 37.4675 9.94066 37.5404C9.87694 37.5404 9.84508 37.5404 9.84508 37.5404C9.71763 37.6864 9.62205 37.8688 9.55833 38.0877C9.49461 38.3066 9.3353 38.416 9.08041 38.416C8.69808 38.416 8.34761 38.0512 8.029 37.3216C7.71038 36.5189 7.45549 35.6434 7.26433 34.6948C7.07316 33.7463 6.97758 33.0896 6.97758 32.7248C6.97758 31.1925 7.13688 29.5873 7.4555 27.9091C8.28388 23.7501 9.84508 20.1383 12.1391 17.0738C14.4968 13.9363 17.3324 11.2731 20.646 9.08413C23.9595 6.89518 27.4961 5.14402 31.2557 3.83066C35.0153 2.51729 38.7749 1.56875 42.5346 0.985027C46.3579 0.328342 49.8945 0 53.1443 0C57.796 0 62.3522 0.547236 66.8127 1.64171C68.7244 2.0795 70.8591 2.77267 73.2168 3.72121C75.5745 4.66975 77.8366 5.87368 80.0032 7.33298C82.1698 8.79227 83.954 10.5799 85.3559 12.6959C86.8215 14.7389 87.5543 17.1103 87.5543 19.81C87.5543 22.6556 86.7578 25.3188 85.1647 27.7996C83.5716 30.2075 81.66 32.3599 79.4297 34.257C77.2631 36.1541 75.224 37.7593 73.3124 39.0727C72.6751 39.5105 71.7512 40.1307 70.5405 40.9333C69.3935 41.663 68.119 42.4656 66.7171 43.3412C65.3152 44.1438 64.0089 44.8369 62.7982 45.4207C61.6512 45.9314 60.7591 46.1868 60.1219 46.1868C61.9698 46.2598 63.9133 46.5516 65.9525 47.0624C68.0553 47.5731 69.9988 48.3757 71.783 49.4702C73.631 50.5647 75.1285 52.024 76.2755 53.8481C77.4224 55.5993 77.9959 57.7882 77.9959 60.4149C77.9959 62.8228 77.4224 65.0482 76.2755 67.0912C75.1922 69.0613 73.8221 70.776 72.1654 72.2353C68.0234 75.8105 63.9452 78.5467 59.9307 80.4438C55.9162 82.4139 51.2645 83.3989 45.9756 83.3989ZM7.26433 92.8114C6.56338 92.8114 5.735 92.7749 4.77916 92.7019C3.82333 92.629 3.05866 92.4101 2.48516 92.0452C2.23028 91.8263 1.75236 91.4615 1.05142 90.9508C0.350472 90.513 0 90.0752 0 89.6374C0 89.1266 0.191166 88.8713 0.573499 88.8713C0.89211 88.9442 1.05142 88.6889 1.05142 88.1051C1.05142 87.5214 0.955833 86.9377 0.764666 86.354C0.5735 85.7702 0.477916 85.1865 0.477916 84.6028C0.477916 83.9461 0.637222 83.0341 0.955832 81.8666C1.27444 80.7721 1.78422 80.2249 2.48516 80.2249C2.67633 80.2249 2.77191 80.3344 2.77191 80.5533C2.77191 81.2829 2.61261 81.9761 2.294 82.6328C1.91167 83.2894 1.7205 83.9461 1.7205 84.6028C1.7205 85.6243 2.10283 86.6094 2.8675 87.5579C3.56844 88.5064 4.46055 89.2726 5.54383 89.8563C6.56338 90.513 7.48736 90.8413 8.31574 90.8413C8.63436 90.8413 8.98483 90.8413 9.36716 90.8413C9.74949 90.8413 10.1 90.8048 10.4186 90.7319C13.6684 90.2211 16.7271 88.397 19.5946 85.2595C22.4621 82.195 25.1065 78.2914 27.528 73.5486C30.0131 68.7329 32.2753 63.5524 34.3144 58.0071C36.4172 52.3888 38.297 46.807 39.9538 41.2617C41.6743 35.7163 43.1718 30.5723 44.4462 25.8296C45.7207 21.0869 46.7721 17.2562 47.6005 14.3376C47.9191 13.1702 48.2696 12.2581 48.6519 11.6014C49.0342 10.8718 49.6396 10.1421 50.468 9.41248C51.615 8.39097 52.9531 7.66132 54.4825 7.22352C56.0118 6.71277 57.4774 6.4574 58.8793 6.4574C59.0067 6.4574 59.1979 6.49388 59.4528 6.56684C59.7714 6.63981 59.9307 6.78574 59.9307 7.00463C59.9307 7.29649 59.7077 7.51539 59.2616 7.66131C58.8156 7.73428 58.5288 7.77076 58.4014 7.77076C57.5093 7.77076 56.5534 8.60986 55.5339 10.288C54.5143 11.9662 53.4948 14.0822 52.4752 16.636C51.4557 19.1898 50.4998 21.853 49.6077 24.6257C48.7156 27.3254 47.9509 29.7697 47.3137 31.9586C46.6765 34.1476 46.2304 35.6434 45.9756 36.446C45.1472 39.1457 44.3188 41.8454 43.4904 44.5451C42.662 47.1718 41.8018 49.7985 40.9096 52.4253C39.9538 55.4898 38.9343 58.5543 37.851 61.6189C36.7677 64.6104 35.5251 67.529 34.1232 70.3746C32.1478 74.4607 30.045 78.1819 27.8147 81.5383C25.6482 84.9676 23.0356 87.6673 19.9769 89.6374C16.982 91.6804 13.1905 92.7384 8.60249 92.8114H7.26433Z" fill="#111111"/>
<path d="M82.9147 78.1454C81.0031 78.1454 80.0473 76.9415 80.0473 74.5337C80.0473 72.8555 80.4296 70.5206 81.1943 67.529C81.9589 64.5375 82.851 61.3635 83.8706 58.0071C84.9539 54.5778 86.0053 51.3673 87.0248 48.3757C88.1081 45.3112 88.9365 42.9034 89.51 41.1522C90.3384 38.5984 91.3579 35.6434 92.5687 32.287C93.7794 28.9306 95.1813 25.5377 96.7743 22.1084C98.3674 18.6061 100.152 15.3956 102.127 12.477C104.166 9.5584 106.396 7.18704 108.818 5.36292C111.303 3.5388 114.011 2.62674 116.942 2.62674C120.129 2.62674 122.231 3.28342 123.251 4.59679C124.334 5.91016 124.876 7.26001 124.876 8.64634C124.876 9.23006 124.685 9.59489 124.302 9.74081C123.984 9.88675 123.824 9.70433 123.824 9.19358C123.824 7.66132 123.283 6.42091 122.199 5.47237C121.18 4.45086 119.905 3.94011 118.376 3.94011C115.764 3.94011 113.278 5.07106 110.921 7.33298C108.563 9.59489 106.365 12.5135 104.325 16.0888C102.286 19.664 100.438 23.4582 98.7816 27.4713C97.1248 31.4114 95.6592 35.1691 94.3847 38.7444C93.174 42.2467 92.2182 45.0558 91.5172 47.1718C91.0712 48.5581 90.4658 50.3823 89.7012 52.6442C88.9365 54.8331 88.1718 57.168 87.4072 59.6488C86.7062 62.0567 86.1009 64.3915 85.5911 66.6534C85.0813 68.8424 84.8264 70.63 84.8264 72.0164C84.8264 72.4542 84.8901 72.9649 85.0176 73.5486C85.145 74.1323 85.4636 74.4242 85.9734 74.4242C86.292 74.4242 86.5469 74.3512 86.7381 74.2053C86.993 74.0594 87.2479 73.9135 87.5027 73.7675C88.9684 72.819 90.3702 71.5421 91.7084 69.9369C93.1103 68.2587 94.3847 66.471 95.5317 64.5739C96.6787 62.6039 97.6346 60.8162 98.3992 59.211C98.463 59.284 98.4948 59.4299 98.4948 59.6488C98.4948 60.2325 98.1125 61.1446 97.3478 62.385C96.6469 63.6254 95.9141 64.8293 95.1494 65.9968C94.4485 67.0912 94.0661 67.7844 94.0024 68.0763C93.9387 68.587 93.8431 69.0248 93.7157 69.3896C93.5882 69.6815 93.4289 70.0828 93.2377 70.5935C92.4731 71.4691 91.4854 72.4906 90.2747 73.6581C89.1277 74.8255 87.9169 75.8835 86.6425 76.8321C85.368 77.7076 84.1255 78.1454 82.9147 78.1454Z" fill="#111111"/>
<path d="M98.1677 78.8021C96.957 78.8021 96.0968 78.4373 95.587 77.7076C95.1409 76.905 94.9179 75.5187 94.9179 73.5486C94.9179 70.703 95.2365 67.7114 95.8737 64.5739C96.511 61.4365 97.3712 58.4084 98.4545 55.4898C99.5378 52.4982 100.748 49.908 102.087 47.7191C103.106 46.1138 104.476 44.618 106.197 43.2317C107.917 41.8454 109.765 40.7144 111.741 39.8388C113.716 38.9633 115.564 38.5255 117.284 38.5255C117.858 38.5255 118.559 38.6349 119.387 38.8538C120.216 38.9997 120.853 39.2916 121.299 39.7294C121.618 40.0213 121.809 40.4226 121.872 40.9333C122 41.4441 122.064 41.9183 122.064 42.3561C122.064 44.2532 121.777 46.4786 121.203 49.0324C120.694 51.5132 119.993 54.067 119.1 56.6937C118.208 59.3205 117.253 61.8013 116.233 64.1362C115.213 66.3981 114.194 68.2952 113.174 69.8274C112.601 70.703 111.677 71.688 110.402 72.7825C109.128 73.804 107.726 74.789 106.197 75.7376C104.731 76.6132 103.266 77.3428 101.8 77.9265C100.334 78.5102 99.1236 78.8021 98.1677 78.8021ZM100.748 75.7376C103.743 75.0079 106.165 73.3662 108.013 70.8124C109.478 68.8424 110.848 66.2521 112.123 63.0417C113.397 59.8312 114.417 56.5113 115.182 53.082C116.01 49.6526 116.424 46.6611 116.424 44.1073C116.424 43.8884 116.392 43.5236 116.329 43.0128C116.329 42.5021 116.233 42.2102 116.042 42.1372C115.277 41.6994 114.417 41.4805 113.461 41.4805C112.824 41.4805 111.995 41.7359 110.976 42.2467C109.956 42.6845 109.192 43.1952 108.682 43.7789C108.363 44.1438 108.045 44.6545 107.726 45.3112C107.471 45.8949 107.216 46.4057 106.961 46.8435C105.751 49.0324 104.572 51.5862 103.425 54.5048C102.342 57.4234 101.449 60.4149 100.748 63.4795C100.048 66.544 99.6971 69.4261 99.6971 72.1258C99.6971 73.0014 99.7608 73.804 99.8882 74.5337C100.079 75.1903 100.366 75.5916 100.748 75.7376Z" fill="#111111"/>
<path d="M125.144 78.8021C123.933 78.8021 123.073 78.4373 122.563 77.7076C122.117 76.905 121.894 75.5187 121.894 73.5486C121.894 70.703 122.213 67.7114 122.85 64.5739C123.487 61.4365 124.347 58.4084 125.431 55.4898C126.514 52.4982 127.725 49.908 129.063 47.7191C130.082 46.1138 131.452 44.618 133.173 43.2317C134.893 41.8454 136.741 40.7144 138.717 39.8388C140.692 38.9633 142.54 38.5255 144.261 38.5255C144.834 38.5255 145.535 38.6349 146.363 38.8538C147.192 38.9997 147.829 39.2916 148.275 39.7294C148.594 40.0213 148.785 40.4226 148.849 40.9333C148.976 41.4441 149.04 41.9183 149.04 42.3561C149.04 44.2532 148.753 46.4786 148.179 49.0324C147.67 51.5132 146.969 54.067 146.077 56.6937C145.185 59.3205 144.229 61.8013 143.209 64.1362C142.19 66.3981 141.17 68.2952 140.15 69.8274C139.577 70.703 138.653 71.688 137.379 72.7825C136.104 73.804 134.702 74.789 133.173 75.7376C131.707 76.6132 130.242 77.3428 128.776 77.9265C127.31 78.5102 126.1 78.8021 125.144 78.8021ZM127.725 75.7376C130.72 75.0079 133.141 73.3662 134.989 70.8124C136.455 68.8424 137.825 66.2521 139.099 63.0417C140.373 59.8312 141.393 56.5113 142.158 53.082C142.986 49.6526 143.4 46.6611 143.4 44.1073C143.4 43.8884 143.368 43.5236 143.305 43.0128C143.305 42.5021 143.209 42.2102 143.018 42.1372C142.253 41.6994 141.393 41.4805 140.437 41.4805C139.8 41.4805 138.972 41.7359 137.952 42.2467C136.932 42.6845 136.168 43.1952 135.658 43.7789C135.339 44.1438 135.021 44.6545 134.702 45.3112C134.447 45.8949 134.192 46.4057 133.938 46.8435C132.727 49.0324 131.548 51.5862 130.401 54.5048C129.318 57.4234 128.426 60.4149 127.725 63.4795C127.024 66.544 126.673 69.4261 126.673 72.1258C126.673 73.0014 126.737 73.804 126.864 74.5337C127.056 75.1903 127.342 75.5916 127.725 75.7376Z" fill="#111111"/>
<path d="M145.334 79.6777C145.27 79.6777 145.238 79.6412 145.238 79.5682C145.238 79.2764 145.365 78.9845 145.62 78.6927C145.812 78.4008 145.939 78.1819 146.003 78.036C146.449 77.2334 146.99 75.8835 147.628 73.9864C148.201 72.0164 148.775 69.8274 149.348 67.4196C149.985 64.9388 150.559 62.458 151.069 59.9772C151.642 57.4234 152.152 55.0885 152.598 52.9725C153.044 50.8565 153.363 49.2513 153.554 48.1568C153.681 47.5731 153.809 46.807 153.936 45.8584C154.064 44.9099 154.255 43.9614 154.51 43.0128C154.764 42.0643 155.051 41.4441 155.37 41.1522C155.943 40.5685 156.804 40.0577 157.951 39.6199C159.098 39.1822 160.276 38.8538 161.487 38.6349C162.698 38.3431 163.654 38.1971 164.355 38.1971C164.737 38.1971 165.024 38.416 165.215 38.8538L165.311 39.1822C165.247 39.4011 165.151 39.5105 165.024 39.5105C164.896 39.4375 164.769 39.4011 164.641 39.4011C163.24 39.4011 161.997 40.3131 160.914 42.1372C159.894 43.8884 158.97 46.0773 158.142 48.7041C157.377 51.2579 156.74 53.7387 156.23 56.1465C155.784 58.5543 155.434 60.3785 155.179 61.6189C157.218 57.6788 159.544 53.8481 162.156 50.1269C164.833 46.4057 167.923 43.4141 171.428 41.1522C171.938 40.8603 172.447 40.5685 172.957 40.2766C173.531 39.9118 174.072 39.7294 174.582 39.7294C175.41 39.7294 175.92 40.1672 176.111 41.0428C176.303 41.8454 176.398 42.6115 176.398 43.3412C176.398 44.2897 176.143 45.6395 175.633 47.3907C175.187 49.0689 174.646 50.7471 174.009 52.4253C173.435 54.1035 172.957 55.4168 172.575 56.3654C174.55 53.3738 176.749 50.5647 179.17 47.9379C181.592 45.2382 184.268 42.9763 187.199 41.1522C187.645 40.8603 188.155 40.5685 188.728 40.2766C189.302 39.9118 189.844 39.7294 190.353 39.7294C191.182 39.7294 191.66 40.1672 191.787 41.0428C191.978 41.8454 192.074 42.6115 192.074 43.3412C192.074 44.4356 191.787 45.822 191.214 47.5002C190.704 49.1054 190.098 50.7471 189.398 52.4253C188.76 54.0305 188.251 55.3804 187.868 56.4748C187.422 57.6423 186.976 58.8462 186.53 60.0866C186.148 61.327 185.797 62.5674 185.479 63.8078C185.224 64.9753 184.937 66.2886 184.618 67.7479C184.3 69.1343 184.14 70.4476 184.14 71.688C184.14 72.1988 184.204 72.7825 184.332 73.4392C184.523 74.0959 184.905 74.4242 185.479 74.4242C185.797 74.4242 186.052 74.3512 186.243 74.2053C186.498 74.0594 186.753 73.9135 187.008 73.7675C188.474 72.819 189.875 71.5421 191.214 69.9369C192.615 68.2587 193.89 66.471 195.037 64.5739C196.184 62.6039 197.14 60.8162 197.904 59.211C197.968 59.284 198 59.4299 198 59.6488C198 60.0866 197.777 60.7433 197.331 61.6189C196.885 62.4215 196.375 63.2971 195.802 64.2456C195.228 65.1942 194.686 66.0332 194.177 66.7629C193.731 67.4925 193.508 67.9303 193.508 68.0763C193.444 68.587 193.348 69.0248 193.221 69.3896C193.093 69.6815 192.902 70.0828 192.647 70.5935C191.883 71.4691 190.768 72.5636 189.302 73.877C187.9 75.1174 186.434 76.2483 184.905 77.2698C183.376 78.2184 182.038 78.6927 180.891 78.6927C179.935 78.6927 179.298 78.3278 178.979 77.5982C178.66 76.7956 178.501 75.92 178.501 74.9714C178.501 73.0744 178.883 70.7395 179.648 67.9668C180.413 65.1212 181.273 62.2755 182.229 59.4299C183.185 56.5843 183.949 54.2494 184.523 52.4253C184.714 51.8416 185.001 50.893 185.383 49.5797C185.829 48.2663 186.052 47.3542 186.052 46.8435C186.052 46.4057 185.988 45.9679 185.861 45.5301C185.733 45.0923 185.415 44.8734 184.905 44.8734C183.886 44.8734 182.643 45.6396 181.177 47.1718C179.775 48.7041 178.342 50.5647 176.876 52.7536C175.41 54.8696 174.104 56.9491 172.957 58.9921C171.874 60.9622 171.109 62.4215 170.663 63.37C170.026 64.8293 169.421 66.3616 168.847 67.9668C168.274 69.4991 167.859 71.0678 167.605 72.673C167.031 72.673 166.266 73.1108 165.311 73.9864C164.418 74.862 163.558 75.7376 162.73 76.6132C161.965 77.4158 161.487 77.8171 161.296 77.8171C161.169 77.8171 161.137 77.7441 161.2 77.5982C161.264 77.3793 161.296 77.1969 161.296 77.0509L161.392 76.2848C161.519 75.1903 161.71 74.1323 161.965 73.1108C162.284 72.0164 162.57 70.9949 162.825 70.0463C163.144 68.8059 163.494 67.5655 163.877 66.3251C164.323 65.0117 164.769 63.7713 165.215 62.6039C165.406 62.0202 165.757 60.9987 166.266 59.5394C166.84 58.0071 167.445 56.3289 168.082 54.5048C168.72 52.6807 169.261 51.0754 169.707 49.6891C170.153 48.2298 170.376 47.2813 170.376 46.8435C170.376 46.4786 170.313 46.0773 170.185 45.6395C170.122 45.2018 169.835 44.9829 169.325 44.9829C168.688 44.9829 167.859 45.4571 166.84 46.4057C165.884 47.3542 165.151 48.1204 164.641 48.7041C161.901 52.1334 159.512 56.037 157.473 60.4149C155.497 64.7199 153.872 69.0978 152.598 73.5486C152.407 74.1323 152.279 74.5337 152.216 74.7525C152.216 74.9714 151.961 75.2998 151.451 75.7376C151.26 75.8105 150.654 76.1754 149.635 76.8321C148.679 77.4887 147.755 78.1089 146.863 78.6927C145.907 79.3493 145.397 79.6777 145.334 79.6777Z" fill="#111111"/>
<path d="M34.5252 69.3775L41.6409 62.8106L49.3937 60.5001L52.4736 57.9463H56.4032L59.4831 59.1624L62.1382 61.2297L64.7933 63.6619L59.4831 62.8106H54.0667L48.9689 61.7162H47.0573L41.6409 63.6619L36.8617 68.1614L32.4011 73.2689L34.5252 69.3775Z" fill="#111111"/>
<path d="M31.5515 66.094L34.1004 49.677L32.826 41.894L26.56 37.2729L23.9049 31.1925V22.0719V14.4106C23.9049 14.897 26.5954 19.7208 27.9406 22.0719L29.8523 26.9362L30.8081 29.49V33.9895L31.5515 36.1784L32.826 39.8267L34.1004 46.88L34.6314 50.5282L33.357 61.8378L31.5515 66.094Z" fill="#111111"/>
</svg>
