<svg width="70" height="70" viewBox="0 0 70 70" fill="none" xmlns="http://www.w3.org/2000/svg">
<path d="M48.3919 21.9625C48.4051 21.9625 48.4226 21.9625 48.4401 21.9625C48.8972 21.9625 49.3216 22.1047 49.6694 22.3497L49.6629 22.3453C49.9166 22.5662 50.0872 22.8769 50.1288 23.2269V23.2334C50.1726 23.5003 50.1966 23.8066 50.1966 24.1194C50.1966 24.2616 50.1922 24.4016 50.1813 24.5416V24.5219C49.6891 29.7041 47.5541 42.2712 46.4691 48.0725C46.0097 50.5291 45.1063 51.3516 44.2313 51.4303C42.3304 51.6075 40.8866 50.1747 39.0447 48.9672C36.1616 47.075 34.5319 45.8981 31.7341 44.0541C28.4988 41.9256 30.5966 40.7509 32.4385 38.8391C32.9219 38.3359 41.3022 30.7125 41.4663 30.0212C41.4751 29.9797 41.4794 29.9337 41.4794 29.8856C41.4794 29.715 41.416 29.5597 41.3132 29.4416C41.1994 29.3672 41.0572 29.3256 40.9085 29.3256C40.8101 29.3256 40.716 29.3453 40.6285 29.3781L40.6329 29.3759C40.3441 29.4416 35.7387 32.4851 26.8166 38.5066C25.8432 39.2744 24.6138 39.76 23.2751 39.8169H23.2619C21.3654 39.5872 19.6438 39.165 18.0097 38.5634L18.1716 38.6159C16.1197 37.9466 14.4901 37.5944 14.6301 36.4612C14.7044 35.8721 15.5167 35.2691 17.0669 34.6522C26.6161 30.4916 32.9839 27.7492 36.1704 26.425C39.6857 24.5591 43.761 23.0234 48.0463 22.0281L48.3897 21.9603L48.3919 21.9625ZM34.8469 2.24219C16.6863 2.28594 1.97974 17.0187 1.97974 35.1859C1.97974 53.3794 16.7279 68.1297 34.9235 68.1297C53.1191 68.1297 67.8672 53.3816 67.8672 35.1859C67.8672 17.0187 53.1607 2.28594 35.0044 2.24219H35.0001C34.949 2.24219 34.898 2.24219 34.8469 2.24219Z" fill="#FEF9F5"/>
</svg>
