<svg width="70" height="70" viewBox="0 0 70 70" fill="none" xmlns="http://www.w3.org/2000/svg">
<path d="M34.9999 1.39999C16.4429 1.39999 1.3999 16.443 1.3999 35C1.3999 53.557 16.4429 68.6 34.9999 68.6C53.5569 68.6 68.5999 53.557 68.5999 35C68.5999 16.443 53.5569 1.39999 34.9999 1.39999ZM47.9219 39.3085C47.9219 39.3085 50.8934 42.2415 51.6249 43.603C51.6459 43.631 51.6564 43.659 51.6634 43.673C51.9609 44.1735 52.0309 44.562 51.8839 44.8525C51.6389 45.3355 50.7989 45.5735 50.5119 45.5945H45.2619C44.8979 45.5945 44.1349 45.5 43.2109 44.863C42.5004 44.366 41.8004 43.5505 41.1179 42.756C40.0994 41.573 39.2174 40.551 38.3284 40.551C38.2155 40.5508 38.1033 40.5685 37.9959 40.6035C37.3239 40.8205 36.4629 41.7795 36.4629 44.3345C36.4629 45.1325 35.8329 45.591 35.3884 45.591H32.9839C32.1649 45.591 27.8984 45.304 24.1184 41.3175C19.4914 36.435 15.3264 26.642 15.2914 26.551C15.0289 25.9175 15.5714 25.578 16.1629 25.578H21.4654C22.1724 25.578 22.4034 26.0085 22.5644 26.39C22.7534 26.8345 23.4464 28.602 24.5839 30.59C26.4284 33.831 27.5589 35.147 28.4654 35.147C28.6354 35.145 28.8023 35.1018 28.9519 35.021C30.1349 34.363 29.9144 30.1455 29.8619 29.2705C29.8619 29.106 29.8584 27.384 29.2529 26.558C28.8189 25.9595 28.0804 25.732 27.6324 25.648C27.8137 25.3978 28.0526 25.1949 28.3289 25.0565C29.1409 24.6505 30.6039 24.591 32.0564 24.591H32.8649C34.4399 24.612 34.8459 24.7135 35.4164 24.857C36.5714 25.1335 36.5959 25.879 36.4944 28.4305C36.4629 29.155 36.4314 29.974 36.4314 30.94C36.4314 31.15 36.4209 31.374 36.4209 31.612C36.3859 32.9105 36.3439 34.384 37.2609 34.9895C37.3805 35.0645 37.5187 35.1045 37.6599 35.105C37.9784 35.105 38.9374 35.105 41.5344 30.6495C42.3353 29.2154 43.0313 27.7252 43.6169 26.1905C43.6694 26.0995 43.8234 25.8195 44.0054 25.711C44.1397 25.6425 44.2887 25.6077 44.4394 25.6095H50.6729C51.3519 25.6095 51.8174 25.711 51.9049 25.9735C52.0589 26.39 51.8769 27.6605 49.0314 31.514L47.7609 33.1905C45.1814 36.5715 45.1814 36.743 47.9219 39.3085Z" fill="#FEF9F5"/>
</svg>
